Coordinates
version=1
nRows=54
nColumns=12
inDegrees=yes

Units are S.I. units (second, meters, Newtons, ...)
Angles are in degrees

endheader
time	SC_y	SC_z	SC_x	AC_y	AC_z	AC_x	GH_y	GH_z	GH_yy	EL_x	PS_y
       0.0              -40.28          10.07          12.65          67.55          9.963          2.303          11.42          4.742          -99.6          28.47          110.2
   0.01452              -40.28          10.07          12.65          67.55          9.963          2.304          11.42           4.75         -99.59          28.47          110.2
   0.02904              -40.28          10.07          12.66          67.55          9.963          2.306          11.43          4.758         -99.58          28.48          110.2
   0.04355              -40.28          10.07          12.66          67.55          9.963          2.308          11.43          4.768         -99.57          28.48          110.2
   0.05807              -40.29          10.08          12.67          67.54          9.963          2.309          11.44          4.778         -99.56          28.48          110.2
   0.07259              -40.29          10.08          12.68          67.54          9.963          2.311          11.45          4.788         -99.54          28.49          110.2
   0.08711              -40.29          10.08          12.68          67.54          9.963          2.314          11.45          4.799         -99.53          28.49          110.3
    0.1016              -40.29          10.08          12.69          67.54          9.963          2.316          11.46          4.811         -99.51           28.5          110.3
    0.1161               -40.3          10.08           12.7          67.54          9.963          2.318          11.47          4.824          -99.5          28.51          110.3
    0.1307               -40.3          10.08           12.7          67.53          9.963          2.321          11.47          4.838         -99.48          28.51          110.3
    0.1452               -40.3          10.08          12.71          67.53          9.963          2.324          11.48          4.852         -99.46          28.52          110.3
    0.1597              -40.31          10.09          12.72          67.53          9.963          2.327          11.49          4.868         -99.44          28.52          110.3
    0.1742              -40.31          10.09          12.73          67.53          9.963           2.33           11.5          4.885         -99.42          28.53          110.3
    0.1887              -40.32          10.09          12.74          67.52          9.963          2.334          11.51          4.904         -99.39          28.54          110.3
    0.2032              -40.32          10.09          12.75          67.52          9.963          2.337          11.52          4.924         -99.37          28.55          110.3
    0.2178              -40.33          10.09          12.77          67.52          9.963          2.342          11.54          4.946         -99.34          28.56          110.3
    0.2323              -40.33           10.1          12.78          67.51          9.963          2.346          11.55          4.969         -99.31          28.57          110.4
    0.2468              -40.34           10.1          12.79          67.51          9.963          2.351          11.56          4.995         -99.28          28.58          110.4
    0.2613              -40.34           10.1          12.81           67.5          9.963          2.356          11.58          5.023         -99.24          28.59          110.4
    0.2758              -40.35           10.1          12.83           67.5          9.963          2.362           11.6          5.054          -99.2           28.6          110.4
    0.2904              -40.36          10.11          12.85          67.49          9.963          2.369          11.62          5.087         -99.16          28.62          110.4
    0.3049              -40.37          10.11          12.87          67.49          9.963          2.376          11.64          5.124         -99.11          28.64          110.5
    0.3194              -40.38          10.11          12.89          67.48          9.963          2.384          11.66          5.165         -99.06          28.65          110.5
    0.3339              -40.39          10.12          12.92          67.47          9.963          2.392          11.69          5.211          -99.0          28.67          110.5
    0.3484               -40.4          10.12          12.95          67.46          9.963          2.402          11.72          5.261         -98.93           28.7          110.6
    0.3629              -40.41          10.13          12.98          67.45          9.963          2.413          11.75          5.318         -98.86          28.72          110.6
    0.3775              -40.43          10.14          13.01          67.44          9.963          2.425          11.78          5.381         -98.78          28.75          110.6
     0.392              -40.44          10.14          13.06          67.43          9.963          2.439          11.82          5.452         -98.69          28.78          110.7
    0.4065              -40.46          10.15           13.1          67.42          9.962          2.454          11.87          5.532         -98.59          28.81          110.7
     0.421              -40.48          10.16          13.15           67.4          9.962          2.471          11.92          5.623         -98.47          28.85          110.8
    0.4355              -40.51          10.17          13.21          67.38          9.962          2.491          11.98          5.727         -98.34           28.9          110.9
    0.4501              -40.54          10.18          13.28          67.36          9.962          2.514          12.05          5.846         -98.18          28.95          110.9
    0.4646              -40.57           10.2          13.36          67.34          9.962           2.54          12.13          5.984         -98.01          29.01          111.0
    0.4791              -40.61          10.21          13.45          67.31          9.962          2.571          12.22          6.144          -97.8          29.08          111.1
    0.4936              -40.65          10.23          13.56          67.28          9.962          2.607          12.32          6.331         -97.56          29.16          111.3
    0.5081               -40.7          10.25          13.68          67.24          9.962          2.649          12.45          6.552         -97.28          29.26          111.4
    0.5226              -40.76          10.28          13.83           67.2          9.962          2.699           12.6          6.814         -96.94          29.37          111.6
    0.5372              -40.84          10.31          14.01          67.14          9.962           2.76          12.78          7.129         -96.54          29.51          111.8
    0.5517              -40.93          10.35          14.23          67.08          9.962          2.832          12.99          7.509         -96.05          29.67          112.0
    0.5662              -41.04           10.4           14.5           67.0          9.962          2.921          13.26          7.974         -95.46          29.88          112.3
    0.5807              -41.17          10.45          14.82           66.9          9.962          3.031          13.58          8.548         -94.72          30.13          112.7
    0.5952              -41.34          10.52          15.23          66.78          9.962          3.168          13.99          9.263          -93.8          30.44          113.2
    0.6097              -41.55          10.62          15.75          66.63          9.961          3.341           14.5          10.16         -92.65          30.83          113.8
    0.6243              -41.82          10.73           16.4          66.43          9.961           3.56          15.15          11.31         -91.18          31.33          114.5
    0.6388              -42.16          10.88          17.24          66.18          9.961          3.841          15.99          12.78          -89.3          31.97          115.5
    0.6533               -42.6          11.06          18.31          65.86           9.96          4.201          17.06          14.66         -86.89          32.78          116.7
    0.6678              -43.17          11.31          19.68          65.45           9.96          4.661          18.42          17.06          -83.8          33.83          118.3
    0.6823              -43.87          11.61          21.41          64.94          9.959           5.24          20.14          20.08         -79.93          35.14          120.3
    0.6969              -44.74          11.98          23.51          64.31          9.958          5.945          22.23          23.76         -75.21          36.75          122.7
    0.7114              -45.74           12.4          25.95          63.59          9.957          6.762          24.66          28.03         -69.73          38.61          125.5
    0.7259              -46.82          12.87          28.59           62.8          9.956          7.647          27.28          32.65         -63.81          40.62          128.6
    0.7404               -47.9          13.33          31.23          62.01          9.955          8.532          29.91          37.28         -57.88          42.63          131.6
    0.7549              -48.91          13.76          33.66          61.29          9.953          9.349          32.34          41.54         -52.41          44.49          134.4
    0.7694              -49.77          14.13          35.77          60.66          9.953          10.05          34.43          45.23         -47.69          46.09          136.8
